<svg xmlns="http://www.w3.org/2000/svg" viewBox="0 0 432.36 86.66"><g data-name="レイヤー 2"><g data-name="レイヤー 1"><path d="M102.07 75.86V13.57h27.74a13.22 13.22 0 0 1 9.72 4.11 13.41 13.41 0 0 1 4.07 9.76v3.4q0 6.15-3.45 9.59t-10.34 4.28q6.9 0 10.34 4.2a14.77 14.77 0 0 1 3.45 9.67V62a13.4 13.4 0 0 1-4.07 9.75 13.2 13.2 0 0 1-9.72 4.12zm13.87-34.64h6.89a6.93 6.93 0 0 0 7-6.89v-6.89a6.95 6.95 0 0 0-7-7h-6.89zm0 27.74h6.89a6.69 6.69 0 0 0 5-2.07 6.8 6.8 0 0 0 2-4.9v-6.9q0-6.89-7-6.89h-6.89zm41.19 6.9V58.58q0-12.21 13.87-13.87-13.86-1.65-13.87-13.87V13.57H171v20.76a6.95 6.95 0 0 0 6.9 6.89 6.93 6.93 0 0 0 7-6.89V13.57h13.79v17.27q0 12.21-13.79 13.87 13.78 1.74 13.79 13.87v17.28h-13.82V55.09a6.67 6.67 0 0 0-2-4.86 6.76 6.76 0 0 0-4.94-2 6.95 6.95 0 0 0-6.9 6.89v20.74zm55.07 0V62h13.86v13.86zm27.32 0V27.44h13.87v6.89a8.37 8.37 0 0 1 2.16-5.19 6.5 6.5 0 0 1 4.73-1.7h7A13.9 13.9 0 0 1 281 41.22v34.64h-13.74V41.22a6.64 6.64 0 0 0-2-4.86 6.75 6.75 0 0 0-4.94-2 6.93 6.93 0 0 0-6.89 6.89v34.61zm68.93-48.42h13.87a13.9 13.9 0 0 1 13.79 13.78V62a13.4 13.4 0 0 1-4.11 9.74 13.2 13.2 0 0 1-9.72 4.12h-13.83A14 14 0 0 1 294.58 62V41.22a13.19 13.19 0 0 1 4.11-9.71 13.37 13.37 0 0 1 9.76-4.07zm0 13.78V62a6.8 6.8 0 0 0 2 4.9 6.83 6.83 0 0 0 9.8 0 6.77 6.77 0 0 0 2-4.9V41.22a6.64 6.64 0 0 0-2-4.86 6.93 6.93 0 0 0-11.83 4.86zm48.17-27.65h13.79v13.87h7v6.89h-7V62a6.22 6.22 0 0 0 2.24 5.19 6.79 6.79 0 0 0 4.07 1.81h.66v6.9h-7A13.9 13.9 0 0 1 356.62 62V34.33h-7v-6.89h7zm75.74 41.52h-27.65V62a6.76 6.76 0 0 0 2 4.9 6.59 6.59 0 0 0 4.89 2.1h7q6.9 0 6.9-7h6.89q-1.58 13.86-13.79 13.87h-13.89A14 14 0 0 1 390.84 62V41.22a13.19 13.19 0 0 1 4.16-9.71 13.37 13.37 0 0 1 9.76-4.07h13.86a13.9 13.9 0 0 1 13.79 13.78zm-27.65-6.89h13.86v-7a6.63 6.63 0 0 0-2-4.86 6.75 6.75 0 0 0-4.94-2 6.93 6.93 0 0 0-6.89 6.89z" fill="#0a122d"/><rect width="86.66" height="86.66" rx="10.72" fill="#14a5c0"/><path d="M25.79 70.75v-55.5h24.72a11.78 11.78 0 0 1 8.66 3.66 12 12 0 0 1 3.62 8.7v3q0 5.47-3.07 8.55T50.51 43q6.14 0 9.21 3.74a13.16 13.16 0 0 1 3.07 8.62v3a12 12 0 0 1-3.62 8.7 11.78 11.78 0 0 1-8.66 3.66zm12.36-30.86h6.14a6.2 6.2 0 0 0 6.22-6.14v-6.14a6.21 6.21 0 0 0-6.22-6.22h-6.14zm0 24.72h6.14a5.92 5.92 0 0 0 4.4-1.85 6 6 0 0 0 1.82-4.37v-6.14q0-6.14-6.22-6.14h-6.14z" fill="#fff"/></g></g></svg>