<svg xmlns="http://www.w3.org/2000/svg" viewBox="0 0 432.36 86.66"><defs><style>.cls-1{fill:#0a122d;}.cls-2{fill:#14a5c0;}.cls-3{fill:#fff;}</style></defs><title>logo_1</title><g id="レイヤー_2" data-name="レイヤー 2"><g id="レイヤー_1-2" data-name="レイヤー 1"><path class="cls-1" d="M102.07,75.86V13.57h27.74a13.22,13.22,0,0,1,9.72,4.11,13.41,13.41,0,0,1,4.07,9.76v3.4q0,6.15-3.45,9.59t-10.34,4.28q6.9,0,10.34,4.2a14.77,14.77,0,0,1,3.45,9.67V62a13.4,13.4,0,0,1-4.07,9.75,13.2,13.2,0,0,1-9.72,4.12Zm13.87-34.64h6.89a6.93,6.93,0,0,0,7-6.89V27.44a6.95,6.95,0,0,0-7-7h-6.89Zm0,27.74h6.89a6.69,6.69,0,0,0,5-2.07,6.8,6.8,0,0,0,2-4.9v-6.9q0-6.89-7-6.89h-6.89Z"/><path class="cls-1" d="M157.13,75.86V58.58q0-12.21,13.87-13.87-13.86-1.65-13.87-13.87V13.57H171V34.33a6.95,6.95,0,0,0,6.9,6.89,6.93,6.93,0,0,0,7-6.89V13.57h13.79V30.84q0,12.21-13.79,13.87,13.78,1.74,13.79,13.87V75.86H184.87V55.09a6.67,6.67,0,0,0-2-4.86,6.76,6.76,0,0,0-4.94-2,6.95,6.95,0,0,0-6.9,6.89V75.86Z"/><path class="cls-1" d="M212.2,75.86V62h13.86V75.86Z"/><path class="cls-1" d="M239.52,75.86V27.44h13.87v6.89a8.37,8.37,0,0,1,2.16-5.19,6.5,6.5,0,0,1,4.73-1.7h7A13.9,13.9,0,0,1,281,41.22V75.86H267.26V41.22a6.64,6.64,0,0,0-2-4.86,6.75,6.75,0,0,0-4.94-2,6.93,6.93,0,0,0-6.89,6.89V75.86Z"/><path class="cls-1" d="M308.45,27.44h13.87a13.9,13.9,0,0,1,13.79,13.78V62A13.4,13.4,0,0,1,332,71.74a13.2,13.2,0,0,1-9.72,4.12H308.45A14,14,0,0,1,294.58,62V41.22a13.19,13.19,0,0,1,4.11-9.71A13.37,13.37,0,0,1,308.45,27.44Zm0,13.78V62a6.8,6.8,0,0,0,2,4.9,6.83,6.83,0,0,0,9.8,0,6.77,6.77,0,0,0,2-4.9V41.22a6.64,6.64,0,0,0-2-4.86,6.93,6.93,0,0,0-11.83,4.86Z"/><path class="cls-1" d="M356.62,13.57h13.79V27.44h7v6.89h-7V62a6.22,6.22,0,0,0,2.24,5.19A6.79,6.79,0,0,0,376.72,69h.66v6.9h-7A13.9,13.9,0,0,1,356.62,62V34.33h-7V27.44h7Z"/><path class="cls-1" d="M432.36,55.09H404.71V62a6.76,6.76,0,0,0,2,4.9A6.59,6.59,0,0,0,411.6,69h7q6.9,0,6.9-7h6.89q-1.58,13.86-13.79,13.87H404.71A14,14,0,0,1,390.84,62V41.22A13.19,13.19,0,0,1,395,31.51a13.37,13.37,0,0,1,9.76-4.07h13.86a13.9,13.9,0,0,1,13.79,13.78ZM404.71,48.2h13.86v-7a6.63,6.63,0,0,0-2-4.86,6.75,6.75,0,0,0-4.94-2,6.93,6.93,0,0,0-6.89,6.89Z"/><rect class="cls-2" width="86.66" height="86.66" rx="10.72"/><path class="cls-3" d="M25.79,70.75V15.25H50.51a11.78,11.78,0,0,1,8.66,3.66,12,12,0,0,1,3.62,8.7v3q0,5.47-3.07,8.55T50.51,43q6.14,0,9.21,3.74a13.16,13.16,0,0,1,3.07,8.62v3a12,12,0,0,1-3.62,8.7,11.78,11.78,0,0,1-8.66,3.66ZM38.15,39.89h6.14a6.2,6.2,0,0,0,6.22-6.14V27.61a6.21,6.21,0,0,0-6.22-6.22H38.15Zm0,24.72h6.14a5.92,5.92,0,0,0,4.4-1.85,6,6,0,0,0,1.82-4.37V52.25q0-6.14-6.22-6.14H38.15Z"/></g></g></svg>